<svg id="Layer_1" data-name="Layer 1" xmlns="http://www.w3.org/2000/svg" viewBox="0 0 1929.7 468.43"><defs><style>.cls-1{fill:#ffd600;}.cls-1,.cls-2{fill-rule:evenodd;}.cls-2{fill:#0055b8;}</style></defs><path class="cls-1" d="M341.91,342a151.5,151.5,0,0,0,20-24.72L242.23,248.13V386.36A151.93,151.93,0,0,0,341.91,342ZM226.2,402.41A168.37,168.37,0,0,1,84.6,157.11L29,125A232.48,232.48,0,0,0,226.2,466.59V402.41ZM126.53,342a152.39,152.39,0,0,1-28-176.83l127.7,73.73V386.36A151.88,151.88,0,0,1,126.53,342Z"/><path class="cls-2" d="M383.82,157.12A168.36,168.36,0,0,1,242.23,402.41v64.18A232.51,232.51,0,0,0,439.42,125l-55.6,32.1ZM126.53,126.59a153.08,153.08,0,0,0-20,24.74L226.2,220.44V82.2a151.65,151.65,0,0,0-99.67,44.39Zm260,107.69A151.81,151.81,0,0,1,370,303.44L250.18,234.28,370,165.13a151.76,151.76,0,0,1,16.55,69.15ZM341.91,126.59a152,152,0,0,1,20,24.73L242.23,220.44V82.2a151.7,151.7,0,0,1,99.68,44.39ZM234.21,66A168.5,168.5,0,0,0,92.59,143.3L37,111.21A234.29,234.29,0,0,1,69.85,69.92a232.45,232.45,0,0,1,328.73,0,234.29,234.29,0,0,1,32.86,41.29l-55.61,32.1a169.56,169.56,0,0,0-22.63-28A167.75,167.75,0,0,0,234.21,66Z"/><path class="cls-2" d="M650,161l-52.38,96.22v43.47H570.11V257.18L518.67,161h34l32.07,64.53L616,161Zm29,70a69.52,69.52,0,0,1,9.58-35.49,72.49,72.49,0,0,1,26-26.29,69.71,69.71,0,0,1,71.18,0,74,74,0,0,1,26.19,26.29,69.63,69.63,0,0,1,0,71.17,72.91,72.91,0,0,1-26.19,25.91,71.07,71.07,0,0,1-71.27,0,71.6,71.6,0,0,1-25.91-25.91A69.18,69.18,0,0,1,679,231Zm28.47,0a44.79,44.79,0,0,0,5.79,22.4A43.56,43.56,0,0,0,729,269.61a42.1,42.1,0,0,0,22.11,6,40,40,0,0,0,21.45-6,42.28,42.28,0,0,0,15.18-16.13,48.49,48.49,0,0,0-.19-45.26A43.17,43.17,0,0,0,772.05,192a42.47,42.47,0,0,0-43.46,0,43.25,43.25,0,0,0-15.47,16.23A46.13,46.13,0,0,0,707.43,231Zm197.29,18a22.82,22.82,0,0,0,4,12.72,30.68,30.68,0,0,0,10.63,9.87,28.22,28.22,0,0,0,14.23,3.79,30.4,30.4,0,0,0,15-3.79,29.38,29.38,0,0,0,10.72-9.87A23.18,23.18,0,0,0,963.18,249V161h27.14v88.63a49.71,49.71,0,0,1-7.59,27,52.32,52.32,0,0,1-20.59,18.79,63.8,63.8,0,0,1-57,0,51.86,51.86,0,0,1-20.4-18.79,50.16,50.16,0,0,1-7.5-27V161h27.52V249Zm176.8-31.31,4.18-5.32L1131.25,161h35.68l-57.7,62.63,57.89,77.06H1132.2l-43.09-59.6-6.83,6.83v52.77h-27.9V161h27.9v49.72l-.76,7Zm212.67,82.94-29.42-44.41h-18.41v44.41h-27.52V161h42.32q26,0,40.34,12.62T1315.83,208a55.41,55.41,0,0,1-5.41,24.2A40.17,40.17,0,0,1,1293.81,250l32.45,50.68Zm-47.83-71h19.55q11.19,0,16.32-6.55a22.44,22.44,0,0,0,5.12-14.14,26.83,26.83,0,0,0-4.36-14.52q-4.37-6.91-16.89-6.92h-19.74v42.13ZM1449,273.32h-46.31l-11.39,27.33h-27.14l63-145.2h1.52l63,145.2h-31.89L1449,273.32Zm-9.11-23.16-13.48-34-14,34ZM1570.35,161V300.65h-27.53V161Zm192.74,0V306.34h-.76l-97.75-88.26.57,82.57h-27.9V155.45h1.14L1736,245l-.57-84.08Zm162.18,0v26.57h-67.76v29.8h60V243.9h-60v30.18h70.42v26.57H1830V161Z"/></svg>